<svg xmlns="http://www.w3.org/2000/svg" width="258.88" height="100.514" viewBox="0 0 258.88 100.514">
  <g id="Group_9783"  transform="translate(-89.899 -290.252)">
    <g id="Group_4518"  transform="translate(168.647 290.252)">
      <path id="Path_2550"  d="M309.5,296.772V229.544H186.989v73.051h-1.324V288l-.851-.851V255.671s-.51-6.213-6.863-5.785c0,0-24.275,1.021-27.224,1.474s-5.218,4.2-8.054,8.961S131.9,279.833,131.9,279.833s-3.289,4.537-1.588,16.788v10.738s-.945.075-.945,1.437,1.134,7.638,4.386,7.638h16.183l1.909,1.437,2.552,1.967h24.8l1.891-2.8h17.166V318.4h41.516v-.907h34.786l2.193-2.571h18.754v-4.235H300.8v2.874h2.5v-4.991h-2.344v-6.2h-3.1v-5.6ZM177.007,269.4c0,3.328-1.323,2.912-2.344,3.933S161.5,278.1,161.5,278.1l-11.948-5.974c-1.437,0-.756.756-.756.756l3.857,2.193-1.815,1.815.454,1.134-1.739,3.4-2.042-5.218v-5.247a88.914,88.914,0,0,1,4.159-8.894c1.512-2.42,3.554-2.042,8.545-2.5s16.788-.3,16.788-.3Z" transform="translate(-129.365 -229.544)" fill="#e5e5e5"/>
      <path id="Path_2551"  d="M212.789,328.167V318.033s-11.8-.151-16.788.3-7.033.076-8.545,2.5a88.879,88.879,0,0,0-4.159,8.894v5.248l2.042,5.218,1.739-3.4-.454-1.134,1.815-1.815-3.857-2.193s-.681-.756.756-.756l11.948,5.974s12.137-3.743,13.158-4.764S212.789,331.494,212.789,328.167Z" transform="translate(-165.147 -288.238)" fill="none"/>
      <path id="Path_2552"  d="M186.566,339.592V328.064l-.851-.851V295.736s-.51-6.213-6.863-5.785c0,0-24.275,1.021-27.224,1.474-1.63.251-3.053,1.508-4.478,3.386.485.23.876.766.054,2.021a187.443,187.443,0,0,0-10.965,20.721s-.788,1.713-3.872,3.125c-.831,1.752-2.463,6.607-1.157,16.007v1.8c1.685-.463,4.539-1.116,5.9-.658,0,0,.4,6.336.518,7.7,0,0-4.146.894-6.42,1.146v.747l6.518-.785s.553,6.57.855,7.667h12.281s.121,1.253.121.684a17,17,0,0,1,24.262-15.366l.023-.031ZM162.4,318.233l-11.948-5.974c-1.437,0-.756.756-.756.756l3.857,2.193-1.815,1.815.454,1.134-1.739,3.4-2.042-5.218v-5.248a88.883,88.883,0,0,1,4.159-8.894c1.512-2.42,3.554-2.042,8.545-2.5s16.788-.3,16.788-.3v10.133c0,3.327-1.323,2.911-2.344,3.932S162.4,318.233,162.4,318.233Z" transform="translate(-130.265 -269.608)" fill="#e5e5e5"/>
      <path id="Path_2553"  d="M389.637,441.112v-6.2h-3.1v-5.6H275.675v5.823h-1.324v-3.067H263.057l-.023.031a16.956,16.956,0,0,1,9.594,17.479h14.315v1.361h41.516v-.907h8.058a17.178,17.178,0,0,1-.193-2.568,17,17,0,0,1,33.992,0h13.877v-4.235h5.294V446.1h2.5v-4.991Z" transform="translate(-218.051 -362.087)" fill="#e5e5e5"/>
      <path id="Path_2554"  d="M474.932,447.706a19.039,19.039,0,0,0,.192,2.678h1.964a17,17,0,1,1,33.8-2.571h1.778c0-.036,0-.071,0-.107a18.874,18.874,0,0,0-13.336-18.043H488.269A18.875,18.875,0,0,0,474.932,447.706Z" transform="translate(-358.64 -362.318)" fill="#d0d0d0"/>
      <path id="Path_2556"  d="M139.485,327.177a187.451,187.451,0,0,1,10.965-20.721c.822-1.255.431-1.791-.054-2.021a62.59,62.59,0,0,0-3.576,5.575c-2.836,4.764-10.776,19.511-10.776,19.511a5.545,5.545,0,0,0-.43.78C138.7,328.89,139.485,327.177,139.485,327.177Z" transform="translate(-133.51 -279.233)" fill="#e5e5e5"/>
      <path id="Path_2557"  d="M138.076,431.953c-1.362-.458-4.217.195-5.9.658V440.8c2.274-.252,6.42-1.146,6.42-1.146C138.472,438.289,138.076,431.953,138.076,431.953Z" transform="translate(-131.229 -363.734)" fill="#d0d0d0"/>
      <path id="Path_2558"  d="M423.1,229.544H300.6v67.228H423.1Z" transform="translate(-242.974 -229.544)" fill="#fbfbfb"/>
      <path id="Path_2559"  d="M425.386,233.372H307.574v64.651H425.386Z" transform="translate(-247.602 -232.084)" fill="#e5e5e5"/>
      <path id="Path_2560"  d="M426.529,235.29H311.069v63.36H426.529Z" transform="translate(-249.921 -233.357)" fill="#fbfbfb"/>
      <path id="Path_2561"  d="M137.684,466.109c-.3-1.1-.855-7.667-.855-7.667l-6.518.785s-.945.075-.945,1.437,1.134,7.638,4.386,7.638h16.183l.03-2.193Z" transform="translate(-129.365 -381.412)" fill="#e5e5e5"/>
      <path id="Path_2562"  d="M163.084,364.076h-12.5l-.015-.1c-.005-.033-.537-3.419-1.135-10.974-.467-5.9-1.262-20.461,1.442-28.328a82.634,82.634,0,0,1,7.347-14.846,10.151,10.151,0,0,1,7.2-4.287c.211-.01,21.281-1.059,23.9-1.059,2.682,0,3.8,1.114,4.271,4.256.444,2.961.762,30.025.378,32.176-.379,2.127-6.193,8.23-6.44,8.489l-.164-.157c.06-.063,6.013-6.312,6.38-8.372.383-2.145.065-29.147-.378-32.1-.45-3-1.509-4.062-4.047-4.062-2.614,0-23.678,1.048-23.891,1.059a9.912,9.912,0,0,0-7.022,4.188,82.386,82.386,0,0,0-7.32,14.792c-2.691,7.826-1.9,22.354-1.431,28.237.543,6.847,1.03,10.263,1.119,10.861h12.311Z" transform="translate(-142.358 -279.266)" fill="#fbfbfb"/>
      <path id="Path_2563"  d="M196.81,322.678v-8.924c0-4.084-2.8-4.008-2.8-4.008l-21.779.757c-4.993.173-6.428,3.479-6.428,3.479a120.777,120.777,0,0,0-5.218,11.343,28.888,28.888,0,0,0-2.382,11.721c0,2.269,1.853,1.583,1.853,1.583l4.462-1.28s23.065-6.806,27.753-8.924S196.81,322.678,196.81,322.678Z" transform="translate(-148.5 -282.757)" fill="#fbfbfb" opacity="0.19"/>
      <path id="Path_2564"  d="M196.81,322.678v-8.924c0-4.084-2.8-4.008-2.8-4.008l-21.779.757c-4.993.173-6.428,3.479-6.428,3.479a120.777,120.777,0,0,0-5.218,11.343,28.888,28.888,0,0,0-2.382,11.721c0,2.269,1.853,1.583,1.853,1.583l4.462-1.28s23.065-6.806,27.753-8.924S196.81,322.678,196.81,322.678Zm-.68,0c0,3.327-1.324,2.911-2.344,3.932s-13.158,4.764-13.158,4.764L168.678,325.4c-1.437,0-.756.757-.756.757l3.857,2.193-1.815,1.815.454,1.134-1.74,3.4-2.042-5.218v-5.247a88.885,88.885,0,0,1,4.159-8.894c1.512-2.42,3.554-2.042,8.545-2.5s16.788-.3,16.788-.3Z" transform="translate(-148.5 -282.757)" fill="#fbfbfb"/>
      <path id="Path_2566"  d="M252.6,401.045a3.2,3.2,0,0,1,2.08-1.928,32.965,32.965,0,0,1,5.217-.265,1.5,1.5,0,0,1,1.021,1.437c0,1.134.067,2.344-1.441,2.344s-6.008.189-6.008.189S251.9,402.841,252.6,401.045Z" transform="translate(-211.012 -341.871)" fill="#d0d0d0"/>
      <g id="Group_4512"  transform="translate(23.519 71.774)">
        <path id="Path_2625"  d="M226.026,456.2a13.387,13.387,0,1,1-13.4-13.372A13.387,13.387,0,0,1,226.026,456.2Z" transform="translate(-199.253 -442.823)" fill="#fbfbfb" stroke="silver" stroke-width="2"/>
        <path id="Path_2626"  d="M229.443,463.77a9.348,9.348,0,1,1-9.358-9.338A9.348,9.348,0,0,1,229.443,463.77Z" transform="translate(-206.879 -450.525)" fill="none" stroke="#f0f0f0" stroke-width="1"/>
      </g>
      <g id="Group_4516"  transform="translate(121.82 71.774)">
        <path id="Path_2737"  d="M518.133,456.2a13.387,13.387,0,1,1-13.4-13.372A13.387,13.387,0,0,1,518.133,456.2Z" transform="translate(-491.359 -442.823)" fill="#fbfbfb" stroke="silver" stroke-width="2"/>
        <path id="Path_2738"  d="M521.549,463.77a9.348,9.348,0,1,1-9.358-9.338A9.347,9.347,0,0,1,521.549,463.77Z" transform="translate(-498.985 -450.525)" fill="none" stroke="#f0f0f0" stroke-width="1"/>
      </g>
      <rect id="Rectangle_1943"  width="5.067" height="6.202" transform="translate(169.539 72.895)" fill="#d0d0d0"/>
      <rect id="Rectangle_1944"  width="13.915" height="2.195" transform="translate(155.176 83.29)" fill="#e5e5e5"/>
      <path id="Rectangle_1945"  d="M1.644,0h.417A1.645,1.645,0,0,1,3.705,1.645v0A1.645,1.645,0,0,1,2.061,3.289H1.645A1.645,1.645,0,0,1,0,1.644v0A1.644,1.644,0,0,1,1.644,0Z" transform="translate(1.286 58.548) rotate(-3.896)" fill="#d0d0d0"/>
      <path id="Path_2794"  d="M136.1,406.589l-.363.025a1.437,1.437,0,0,1-1.531-1.336h0a1.437,1.437,0,0,1,1.337-1.531l.362-.024a1.436,1.436,0,0,1,1.531,1.336h0A1.436,1.436,0,0,1,136.1,406.589Z" transform="translate(-132.574 -345.105)" fill="#d0d0d0"/>
    </g>
    <path id="Path_2795"  d="M0,0H237.66" transform="translate(89.899 390.266)" fill="none" stroke="#ebebeb" stroke-width="1"/>
  </g>
</svg>
