<svg xmlns="http://www.w3.org/2000/svg" xmlns:xlink="http://www.w3.org/1999/xlink" width="1471" height="186" viewBox="0 0 1471 186">
  <defs>
    <pattern id="pattern" preserveAspectRatio="none" width="100%" height="100%" viewBox="0 0 100 100">
      <image width="100" height="100" xlink:href="$base64"/>
    </pattern>
  </defs>
  <g id="image111" transform="translate(0 -0.435)" opacity="0.325">
    <path id="Shape" d="M1081,185H0L24.525,163.29A100.7,100.7,0,0,1,55.1,143.775a94.13,94.13,0,0,1,35.456-6.914h16.13a142.851,142.851,0,0,0,25.878-2.366,140.04,140.04,0,0,0,24.658-6.932,134.9,134.9,0,0,0,22.712-11.25,128.453,128.453,0,0,0,20.042-15.32,129.857,129.857,0,0,1,88.6-34.923H412.214A84.606,84.606,0,0,0,427.835,64.6a86.252,86.252,0,0,0,14.976-4.255,84.533,84.533,0,0,0,13.826-6.821,79.528,79.528,0,0,0,12.173-9.166,76.985,76.985,0,0,1,25.481-15.515A86.3,86.3,0,0,1,524.37,23.6h96.5a46.591,46.591,0,0,0,30.94-12.271,41.854,41.854,0,0,1,14-8.53A46.782,46.782,0,0,1,681.992,0H896.721A183.631,183.631,0,0,1,991.6,26.429H973.372a22.553,22.553,0,0,0-15.941,6.607,22.558,22.558,0,0,1-15.942,6.607h-47.73a5.191,5.191,0,0,0,0,10.382h128.965A184.231,184.231,0,0,1,1081,185ZM880.081,84a4.719,4.719,0,0,0,0,9.439H985.728a13.214,13.214,0,0,0,0-26.428H935.452a28.913,28.913,0,0,0-20.469,8.495A28.745,28.745,0,0,1,894.584,84h-14.5ZM832.917,29.26a16.041,16.041,0,1,0,11.339,4.7A15.926,15.926,0,0,0,832.917,29.26Z" transform="translate(390 1.435)" fill="#58be3f"/>
    <path id="Shape-2" d="M972,119H746.674V55.723H851.323a139.435,139.435,0,0,1,98.05,40.611L972,119l0,0h0ZM42.416,119H0c14.857,0,29.524-4.9,42.416-14.167V119ZM711.792,77.445h-84.85V.944h.714a118.368,118.368,0,0,1,84.136,35.135V77.444ZM371.447,76.5H355.42V40.611a69.664,69.664,0,0,0,16.027-1.889Zm93.335-63.278,0,0L451.583,0h13.2V13.222Z" transform="translate(499 67.435)" fill="#c8e9c0"/>
    <path id="Shape-3" d="M45.312,156H0V8.509H9.44V0H50.032V9.454h-4.72V156ZM118,156H97.232l-42.48-42.545h33.04V55.782H118V156Z" transform="translate(783 30.435)" fill="#fff"/>
    <path id="Shape-4"  d="M25,41H0V39.137H25V41Zm0-5.591H0V33.545H25v1.863Zm0-5.59H0V27.954H25v1.863Zm0-5.591H0V22.364H25v1.863Zm0-5.591H0V16.773H25v1.863Zm0-5.59H0V11.182H25v1.863Zm0-5.591H0V5.591H25V7.454Zm0-5.591H0V0H25V1.863Z" transform="translate(875 92.435)" fill="#d6d6d6"/>
    <path id="Path" d="M0,0H33.951V5.659H0Z" transform="translate(878.965 80.163)" fill="#fff"/>
    <path id="Path-2"  d="M0,17.919,17.919,0H33.951V17.919Z" transform="translate(878.965 62.244)" fill="#108d00"/>
    <path id="Path-3"  d="M50.927,17.919,33.008,0H0V17.919Z" transform="translate(912.917 62.244)" fill="#21aa00"/>
    <path id="Shape-5"  d="M30,6l0,0L24.375,0H30V6ZM17.812,6l0,0L12.187,0h5.625V6ZM5.625,6l0,0L0,0H5.625V6Z" transform="translate(918 68.435)" fill="#fff"/>
    <path id="Shape-6"  d="M98,101l0,0L46.173,49.084H98V101ZM16.019,2.832H0V0H16.019V2.831Z" transform="translate(897 59.435)" fill="#fff"/>
    <path id="Shape-7"  d="M17,31H15.111V24.424H17V31ZM9.444,31H8.5l-.944-.939V24.424H9.444V31ZM1.889,25.363l0,0-.943-.938h.944v.939ZM17,18.788H15.111V12.212H17v6.575Zm-7.556,0H7.556V12.212H9.444v6.575Zm-7.556,0H0V12.212H1.889v6.575ZM17,6.576H15.111V0H17V6.575Zm-7.556,0H7.556V0H9.444V6.575Zm-7.556,0H0V0H1.889V6.575Z" transform="translate(970 114.435)" fill="#d6d6d6"/>
    <path id="Shape-8"  d="M20.124,47H0V39.48H20.124V47Zm0-13.16H0V26.32H20.124v7.519Zm0-13.16H0V13.16H20.124v7.518ZM23,7.52H0V0H15.333L23,7.518Z" transform="translate(640 92.435)" fill="#21aa00"/>
    <path id="Shape-9"  d="M20,32H0V26.353H20V32Zm0-13.177H0V13.177H20v5.646ZM16.191,5.647H0V0H16.191V5.646Z" transform="translate(640 100.435)" fill="#d6d6d6"/>
    <path id="Shape-10"  d="M52,47H0l7.564-7.52H52V47Zm0-13.16H10.4l7.564-7.52H52v7.519Zm0-13.16H18.909l7.564-7.519H52v7.518ZM52,7.52H28.363L35.927,0H52V7.519Z" transform="translate(588 92.435)" fill="#108d00"/>
    <path id="Shape-11"  d="M616,82h0v0L578.266,44.3h-9.433V8.483H616ZM33.96,32.046H0V26.391H33.96v5.655Zm0-13.2H8.49V13.2H33.96v5.654Zm0-13.195H17.923V0H33.96V5.655Z" transform="translate(606 100.435)" fill="#fff"/>
    <path id="Path-4"  d="M0,0V7.545H24.52L16.976,0Z" transform="translate(1222.252 100.911)"/>
    <path id="Path-5"  d="M47.155,0V7.545H0L7.922,0Z" transform="translate(1175.097 100.911)"/>
    <path id="Shape-12"  d="M69.72,73H0V39.818H69.72V73ZM505,31.285h-1.885V24.649H505v6.635Zm-7.537,0h-1.885V24.649h1.885v6.635Zm-7.537,0h-1.884V24.649h1.884v6.635Zm-7.537,0H480.5V24.649h1.884v6.635Zm-7.537,0h-1.884V24.649h1.884v6.635Zm-7.537,0h-1.884V24.649h1.884v6.635ZM505,18.961h-1.885V12.324H505V18.96Zm-7.537,0h-1.885V12.324h1.885V18.96Zm-7.537,0h-1.884V12.324h1.884V18.96Zm-7.537,0H480.5V12.324h1.884V18.96Zm-7.537,0h-1.884V12.324h1.884V18.96Zm-7.537,0h-1.884V12.324h1.884V18.96ZM505,6.636h-1.885V0H505V6.635Zm-7.537,0h-1.885V0h1.885V6.635Zm-7.537,0h-1.884V0h1.884V6.635Zm-7.537,0H480.5V0h1.884V6.635Zm-7.537,0h-1.884V0h1.884V6.635Zm-7.537,0h-1.884V0h1.884V6.635Z" transform="translate(713 113.435)" fill="#d6d6d6"/>
    <path id="Shape-13"  d="M52.889,186H0V94.416A13.22,13.22,0,0,1,13.223,81.2h23.61V75.533H52.889V30.213L83.111,0V81.2H52.889V186ZM255,59.482h-1.889V46.263H255V59.481Z" transform="translate(660 0.435)" fill="#fff"/>
    <path id="Path-6"  d="M0,0H5.659V1.886H0Z" transform="translate(914.803 46.212)"/>
    <path id="Path-7"  d="M0,0H1.886V13.2H0Z" transform="translate(928.949 46.212)" fill="#fff"/>
    <path id="Path-8"  d="M0,0H5.659V1.886H0Z" transform="translate(930.835 46.212)"/>
    <path id="Path-9"  d="M0,0H1.886V13.2H0Z" transform="translate(944.039 46.212)" fill="#fff"/>
    <path id="Path-10"  d="M0,0H5.659V1.886H0Z" transform="translate(945.925 46.212)"/>
    <path id="Shape-14"  d="M189,156H137.025V9.454h4.725V0h17.01V9.454h4.725v104h-17.01L189,156ZM17.01,146.546H15.12v-6.618h1.89v6.617Zm-7.56,0H7.56v-6.618H9.45v6.617Zm-7.56,0H0v-6.618H1.89v6.617Zm15.12-12.291H15.12v-6.618h1.89v6.617Zm-7.56,0H7.56v-6.618H9.45v6.617Zm-7.56,0H0v-6.618H1.89v6.617Z" transform="translate(691 30.435)" fill="#d6d6d6"/>
    <path id="Path-11"  d="M0,0H38.667V46.212H0Z" transform="translate(568.687 139.578)" fill="url(#pattern)"/>
    <path id="Shape-15"  d="M91.457,169H0V122.736H91.457V169ZM231,13.218h-1.886V0H231V13.217Zm-5.657,0h-1.886V0h1.886V13.217Z" transform="translate(569 17.435)" fill="#d6d6d6"/>
    <path id="Path-12"  d="M12.26,0A12.619,12.619,0,0,0,0,12.26H24.52A12.619,12.619,0,0,0,12.26,0Z" transform="translate(973.275 12.26)"/>
    <path id="Path-13"  d="M0,0V12.26H12.26A12.619,12.619,0,0,0,0,0Z" transform="translate(985.535 12.26)"/>
    <path id="Path-14"  d="M23.577,80.163V2.829H21.691V0H2.829V2.829H0V80.163Z" transform="translate(963.844 24.52)" fill="#fff"/>
    <path id="Shape-16"  d="M16,48H14.118V41.412H16V48Zm-4.706,0H9.412V41.412h1.882V48ZM6.588,48H4.706V41.412H6.588V48ZM1.882,48H0V41.412H1.882V48ZM16,37.646H14.118V31.059H16v6.587Zm-4.706,0H9.412V31.059h1.882v6.587Zm-4.705,0H4.706V31.059H6.588v6.587Zm-4.706,0H0V31.059H1.882v6.587ZM16,27.294H14.118V20.705H16v6.587Zm-4.706,0H9.412V20.705h1.882v6.587Zm-4.705,0H4.706V20.705H6.588v6.587Zm-4.706,0H0V20.705H1.882v6.587ZM16,16.941H14.118V10.353H16V16.94Zm-4.706,0H9.412V10.353h1.882V16.94Zm-4.705,0H4.706V10.353H6.588V16.94Zm-4.706,0H0V10.353H1.882V16.94ZM16,6.588H14.118V0H16V6.587Zm-4.706,0H9.412V0h1.882V6.587Zm-4.705,0H4.706V0H6.588V6.587Zm-4.706,0H0V0H1.882V6.587Z" transform="translate(968 32.435)" fill="#d6d6d6"/>
    <path id="Path-15"  d="M0,0H24.52V94.31H0Z" transform="translate(1077.015 35.838)" fill="#fff"/>
    <path id="Path-16"  d="M24.52,94.31H0V0A24.52,24.52,0,0,1,24.52,24.52Z" transform="translate(1101.536 35.838)" fill="#d6d6d6"/>
    <path id="Path-17"  d="M0,0H57.529V41.5H0Z" transform="translate(1059.096 144.294)" fill="#fff"/>
    <path id="Path-18"  d="M0,0H67.9V41.5H0Z" transform="translate(1116.625 144.294)" fill="#d6d6d6"/>
    <path id="Shape-17"  d="M45,29H39.376V2.806a2.812,2.812,0,0,1,5.624,0V29ZM31.875,29H26.25V2.806a2.813,2.813,0,0,1,5.625,0V29ZM18.75,29H13.125V2.806a2.812,2.812,0,0,1,5.624,0V29ZM5.625,29H0V2.806a2.813,2.813,0,0,1,5.625,0V29Z" transform="translate(1128 156.435)"/>
    <path id="Shape-18"  d="M32,29H26.353V2.806a2.824,2.824,0,0,1,5.647,0V29ZM18.823,29H13.177V2.806a2.823,2.823,0,0,1,5.646,0V29ZM5.647,29H0V2.806a2.824,2.824,0,0,1,5.647,0V29Z" transform="translate(1077 156.435)" fill="#d6d6d6"/>
    <path id="Path-19"  d="M0,10.374V6.6H4.715A16.4,16.4,0,0,0,16.033,1.886L17.919,0H27.35V10.374Z" transform="translate(685.631 142.407)" fill="#108d00"/>
    <path id="Shape-19"  d="M69.856,23H0V12.459H51.92l1.888,1.917A17.947,17.947,0,0,0,66.08,19.167h3.776V23ZM472,14.375H404.032a47.7,47.7,0,0,1,15.58-10.628A47.131,47.131,0,0,1,438.016,0h.211A47.009,47.009,0,0,1,472,14.373Z" transform="translate(713 130.435)" fill="#21aa00"/>
    <path id="Shape-20"  d="M149,122H107.506V80.387L149,122ZM24.519,41.613H0V39.721H24.519v1.89Zm0-5.675H0V34.047H24.519v1.89Zm0-5.674H0V28.372H24.519v1.891Zm0-5.675H0V22.7H24.519v1.89Zm0-5.675H0V17.023H24.519v1.89Zm0-5.674H0V11.349H24.519V13.24Zm0-5.675H0V5.675H24.519v1.89Zm0-5.675H0V0H24.519V1.89Z" transform="translate(1077 64.435)" fill="#d6d6d6"/>
    <path id="Shape-21"  d="M25,41H0V39.137H25V41Zm0-5.591H0V33.545H25v1.863Zm0-5.59H0V27.954H25v1.863Zm0-5.591H0V22.364H25v1.863Zm0-5.591H0V16.773H25v1.863Zm0-5.59H0V11.182H25v1.863Zm0-5.591H0V5.591H25V7.454Zm0-5.591H0V0H25V1.863Z" transform="translate(1102 64.435)"/>
    <path id="Path-20"  d="M0,0V24.52H24.52A24.6,24.6,0,0,0,0,0Z" transform="translate(1101.536 35.838)" fill="url(#pattern)"/>
    <path id="Path-21"  d="M0,0H33.008V33.008H0Z" transform="translate(1259.033 152.782)" fill="#d6d6d6"/>
    <path id="Path-22"  d="M0,0H33.008V33.008H0Z" transform="translate(1259.033 152.782)" fill="url(#pattern)"/>
    <path id="Path-23"  d="M24.52,12.26H0L12.26,0Z" transform="translate(1234.512 140.521)"/>
    <path id="Shape-22"  d="M216.083,45H214.2V34.688h1.887V45Zm-78.318,0h-1.887V28.125h1.887V35.25l.284-.282,1.887-1.875A4.722,4.722,0,0,0,141.54,30V28.125h1.887V30a6.517,6.517,0,0,1-2.171,4.406l-1.887,1.875a5.9,5.9,0,0,0-1.6,3.562V45ZM1.887,45H0V34.688H1.887V45ZM619,12.187H585.974L573.708,0h33.025L619,12.186Z" transform="translate(673 140.435)"/>
    <path id="Path-24"  d="M0,0H33.008V2.829H0Z" transform="translate(912.917 59.415)" fill="#d6d6d6"/>
    <path id="Path-25"  d="M462.117,66.017a40.025,40.025,0,0,1-28.764-12.166c-9.337-9.337-22.163-15.184-35.366-15.184H362.149c-7.545,0-14.429-2.169-19.805-7.545A29.981,29.981,0,0,0,321.6,22.634H246.148A38.771,38.771,0,0,1,218.8,11.317,38.771,38.771,0,0,0,191.448,0H94.31a68.176,68.176,0,0,0-48.1,19.805L0,66.017Z" transform="translate(0 119.773)"/>
    <path id="Shape-23"  d="M20.5,41A20.505,20.505,0,0,1,12.52,1.611,20.505,20.505,0,0,1,28.479,39.389,20.373,20.373,0,0,1,20.5,41Zm0-36.341A15.841,15.841,0,0,0,9.3,31.7,15.841,15.841,0,1,0,31.7,9.3,15.738,15.738,0,0,0,20.5,4.659Z" transform="translate(1202 25.435)"/>
    <path id="Shape-24"  d="M25,30H23.077V22.5L25,24.375V30Zm-7.692,0H15.385V15l1.923,1.875V30ZM9.615,30H7.692V7.5L9.615,9.375V30ZM1.923,30H0V0L1.923,1.875V30Z" transform="translate(610 142.435)"/>
    <path id="Path-26"  d="M27.35,0H10.563A10.544,10.544,0,0,0,0,10.525V46.212H27.35Z" transform="translate(541.337 139.578)" fill="#fff"/>
    <path id="Shape-25"  d="M8.488,127H6.6V96.9H8.488V127Zm-6.6,0H0V96.9H1.886V127ZM431,98.778H413.081V84.667H431v14.11ZM203.711,92.193h-6.6V90.311h6.6v1.88Zm-10.374,0h-6.6V90.311h6.6v1.88Zm10.374-5.645h-6.6V84.667h6.6v1.88Zm-10.374,0h-6.6V84.667h6.6v1.88ZM203.711,80.9h-6.6V79.022h6.6V80.9Zm-10.374,0h-6.6V79.022h6.6V80.9Zm10.374-5.645h-6.6V73.378h6.6v1.88Zm-10.374,0h-6.6V73.378h6.6v1.88Zm10.374-5.645h-6.6V67.733h6.6v1.88Zm-10.374,0h-6.6V67.733h6.6v1.88Zm10.374-5.644h-6.6V62.089h6.6V63.97Zm-10.374,0h-6.6V62.089h6.6V63.97Zm10.374-5.645h-6.6V56.445h6.6v1.88Zm-10.374,0h-6.6V56.445h6.6v1.88Zm10.374-5.645h-6.6V50.8h6.6v1.88Zm-10.374,0h-6.6V50.8h6.6v1.88Zm10.374-5.644h-6.6V45.155h6.6v1.881Zm-10.374,0h-6.6V45.155h6.6v1.881Zm10.374-5.645h-6.6V39.511h6.6v1.88Zm-10.374,0h-6.6V39.511h6.6v1.88Zm10.374-5.645h-6.6V33.867h6.6v1.88Zm-10.374,0h-6.6V33.867h6.6v1.88ZM203.711,30.1h-6.6V28.222h6.6V30.1Zm-10.374,0h-6.6V28.222h6.6V30.1Zm10.374-5.645h-6.6V22.578h6.6v1.88Zm-10.374,0h-6.6V22.578h6.6v1.88Zm10.374-5.645h-6.6V16.933h6.6v1.88Zm-10.374,0h-6.6V16.933h6.6v1.88Zm10.374-5.644h-6.6V11.289h6.6V13.17Zm-10.374,0h-6.6V11.289h6.6V13.17Zm10.374-5.645h-6.6V5.645h6.6v1.88Zm-10.374,0h-6.6V5.645h6.6v1.88Zm10.374-5.645h-6.6V0h6.6V1.88Zm-10.374,0h-6.6V0h6.6V1.88Z" transform="translate(646 45.435)"/>
    <path id="Path-27"  d="M73.561,0H0V14.146H39.61A47.938,47.938,0,0,1,73.561,0Z" transform="translate(1077.015 130.147)"/>
    <path id="Path-28"  d="M36.781,54.7H24.52V0H0V77.334H36.781Z" transform="translate(1222.252 108.456)" fill="#d6d6d6"/>
    <path id="Shape-26"  d="M17,31H15.111V24.424H17V31ZM9.444,31H7.556V24.424H9.444V31ZM1.889,31H0V24.424H1.889V31ZM17,18.788H15.111V12.212H17v6.575Zm-7.556,0H7.556V12.212H9.444v6.575Zm-7.556,0H0V12.212H1.889v6.575ZM17,6.576H15.111V0H17V6.575Zm-7.556,0H7.556V0H9.444V6.575Zm-7.556,0H0V0H1.889V6.575Z" transform="translate(1226 113.435)"/>
    <path id="Path-29"  d="M7.545,41.5h3.772V0H0V39.893A19.362,19.362,0,0,0,7.545,41.5Z" transform="translate(771.452 107.513)" fill="#c8e9c0"/>
    <path id="Shape-27"  d="M98,147h-.66a15.552,15.552,0,0,1-4.052-2.827L91.4,142.289H39.577V129.1H0v-1.884H39.577v-3.769H0v-1.885H39.577v-3.769H0V115.9H39.577v-3.77H0V110.25H39.577v-3.769H0V104.6H39.577v-3.769H0V98.943H39.577v-3.77H0V93.289H39.577V89.52H0V87.634H39.577v-6.6H69.73V0H98Z" transform="translate(673 0.435)" fill="#d6d6d6"/>
    <path id="Shape-28"  d="M51,129H49.111V0H51Zm-5.667,0H43.444V0h1.889Zm-5.666,0h-1.89V0h1.89Zm-7.556,0H0v-1.883H32.111V129Zm0-5.649H0v-1.884H32.111v1.883Zm0-5.65H0v-1.883H32.111V117.7Zm0-5.65H0v-1.883H32.111v1.882Zm0-5.649H0v-1.884H32.111V106.4Zm0-5.65H0V98.869H32.111v1.882Zm0-5.65H0V93.219H32.111V95.1Zm0-5.649H0V87.569H32.111v1.883Z" transform="translate(713 0.435)"/>
    <path id="Path-30"  d="M0,0H33.008V33.008Z" transform="translate(607.354 139.578)" fill="#fff"/>
    <path id="Shape-29"  d="M25,25l0,0-1.921-1.921V0H25V25Zm-7.692-7.692,0,0-1.921-1.921V0h1.923V17.308ZM9.615,9.615l0,0L7.692,7.692V0H9.615V9.615ZM1.923,1.923l0,0L0,0H1.923V1.923Z" transform="translate(610 142.435)" fill="#d6d6d6"/>
    <path id="Path-31"  d="M0,0H17.919V62.244H0Z" transform="translate(1059.096 67.903)"/>
    <path id="Path-32"  d="M100.911,2.829V0H84.879V2.829h1.886V78.277L69.789,61.3h-6.6V55.643H12.26V61.3H0v99.968H94.31V135.806l-51.87-51.87h61.3V2.829Z" transform="translate(900.656 24.52)" fill="#d6d6d6"/>
    <path id="Shape-30"  d="M42.477,102H0v-1.889H42.477V102Zm0-5.667H0V94.444H42.477v1.888Zm0-5.666H0v-1.89H42.477v1.889Zm0-5.667H0V83.111H42.477V85Zm0-5.667H0V77.444H42.477v1.888ZM69.85,73.667H0v-1.89H69.85v1.889Zm0-5.667H0V66.111H69.85V68Zm0-5.667H0V60.444H69.85v1.888ZM101,17H99.112V10.389H101V17Zm-4.72,0H94.392V10.389H96.28V17Zm-4.719,0H89.673V10.389h1.888V17ZM101,6.611H99.112V0H101V6.61Zm-4.72,0H94.392V0H96.28V6.61Zm-4.719,0H89.673V0h1.888V6.61Z" transform="translate(901 32.435)"/>
    <path id="Path-33"  d="M48.381.456a1.886,1.886,0,0,0-3.112,1.32V12.15L33.291.456a1.886,1.886,0,0,0-3.112,1.32V12.15L18.2.456a1.886,1.886,0,0,0-3.112,1.32V12.15L3.112.456A1.886,1.886,0,0,0,0,1.776V36.67H60.358V12.15Z" transform="translate(917.632 149.119)" fill="#fff"/>
    <path id="Shape-31"  d="M38,13H31.351V11.142H38V13ZM27.55,13H20.9V11.142h6.65V13ZM17.1,13H10.45V11.142H17.1V13ZM6.65,13H0V11.142H6.65V13ZM38,7.428H31.351V5.572H38V7.428Zm-10.45,0H20.9V5.572h6.65V7.428Zm-10.45,0H10.45V5.572H17.1V7.428Zm-10.45,0H0V5.572H6.65V7.428ZM38,1.857H31.351V0H38V1.856Zm-10.45,0H20.9V0h6.65V1.856Zm-10.45,0H10.45V0H17.1V1.856Zm-10.45,0H0V0H6.65V1.856Z" transform="translate(921 166.435)" fill="#d6d6d6"/>
    <path id="Shape-32"  d="M7,13H0V11.142H7V13ZM7,7.428H0V5.572H7V7.428ZM7,1.857H0V0H7V1.856Z" transform="translate(984 166.435)"/>
    <path id="Shape-33"  d="M17,7H15.111V0H17V7ZM9.444,7H7.556V0H9.444V7ZM1.889,7H0V0H1.889V7Z" transform="translate(948 138.435)" fill="#d6d6d6"/>
    <path id="Shape-34"  d="M25,7H23.077V0H25V7ZM17.308,7H15.385V0h1.923V7ZM9.615,7H7.692V0H9.615V7ZM1.923,7H0V0H1.923V7Z" transform="translate(948 138.435)"/>
    <path id="Shape-35"  d="M9,7H7.2V0H9V7ZM1.8,7H0V0H1.8V7Z" transform="translate(948 126.435)" fill="#d6d6d6"/>
    <path id="Shape-36"  d="M9,19H7.2V12.35H9V19ZM1.8,19H0V12.35H1.8V19Zm0-12.35H0V0H.9l.9.95v5.7Z" transform="translate(948 114.435)"/>
    <path id="Shape-37"  d="M9,19l0,0L7.2,17.1V12.35H9V19ZM9,6.65H7.2V0H9V6.649Zm-7.2,0H0V0H1.8V6.649Z" transform="translate(955 114.435)" fill="#d6d6d6"/>
    <path id="Path-34"  d="M1.886,1.886H0V0Z" transform="translate(977.99 143.351)"/>
    <path id="Path-35"  d="M24.52,0H0L24.52,24.52Z" transform="translate(1234.512 152.782)" fill="#fff"/>
    <path id="Path-36"  d="M24.52,12.26H0L12.26,0Z" transform="translate(1234.512 140.521)"/>
    <path id="Shape-38"  d="M9,7H7.2V0H9V7ZM1.8,7H0V0H1.8V7Z" transform="translate(1246 156.435)" fill="#d6d6d6"/>
    <path id="Path-37"  d="M0,23.577c5.847,0,12.826-2.452,16.976-6.6A26.407,26.407,0,0,1,35.838,9.431H54.7A16.825,16.825,0,0,0,66.017,4.715C67.9,2.829,70.166.754,72.618,0V23.577H0Z" transform="translate(1219.423 162.212)"/>
    <path id="Path-38"  d="M1.886,4.715H0V0L1.886,1.886Z" transform="translate(962.901 128.261)"/>
    <path id="Shape-39"  d="M229.171,17H218.118a4.1,4.1,0,0,1-3.943-4.25v-.094a4.157,4.157,0,0,1,4.15-4.156h3.207a4.809,4.809,0,0,1,3.4,1.417,4.649,4.649,0,0,0,3.33,1.417h.913a2.833,2.833,0,0,1,0,5.667ZM12.732,17H3.3a3.306,3.306,0,0,1,0-6.611H4.338A3.275,3.275,0,0,0,6.6,9.444,3.272,3.272,0,0,1,8.865,8.5h3.886a4.231,4.231,0,0,1,.018,8.463L12.732,17ZM154.2,10.389H138.163a3.306,3.306,0,0,1,0-6.611h.016a5.685,5.685,0,0,0,4.04-1.7l.188-.189A6.381,6.381,0,0,1,146.921,0H154.2a5.194,5.194,0,0,1,0,10.389Z" transform="translate(665 158.435)" fill="#58be3f"/>
    <path id="Path-39"  d="M.943.943,0,0H.943Z" transform="translate(948.754 114.115)" fill="#d6d6d6"/>
    <path id="Path-40"  d="M41.5,0H18.862A18.8,18.8,0,0,0,0,18.73V138.635H41.5Z" transform="translate(994.966 47.155)" fill="#fff"/>
    <path id="Shape-40"  d="M22,66l0,0-1.912-1.884V0H22V66Zm-6.7-6.6,0,0-1.911-1.884V0H15.3V59.4Zm-6.7-5.657H6.7V0H8.609Zm-6.7,0H0V0H1.913Z" transform="translate(1011 54.435)" fill="#d6d6d6"/>
    <path id="Path-41"  d="M64.131,97.139V0H41.5V76.391L26.407,61.3H0v77.334H105.627Z" transform="translate(994.966 47.155)" fill="#d6d6d6"/>
    <path id="Shape-41"  d="M15.03,75H13.152V57.911H15.03v7.215l.282-.285,1.879-1.9a4.8,4.8,0,0,0,1.6-3.133v-1.9h1.879v1.9a6.637,6.637,0,0,1-2.16,4.462l-1.879,1.9a7.049,7.049,0,0,0-1.6,4.082V75Zm1.879-40.823H15.03V27.531h1.879v6.645Zm-7.515,0H7.515V27.531H9.394v6.645Zm-7.515,0H0V27.531H1.879v6.645ZM31,31.329H29.121V6.646L31,8.544V31.328Zm-6.576,0H22.546V0l1.879,1.9v29.43Zm-7.515-9.494H15.03V15.19h1.879v6.645Zm-7.515,0H7.515V15.19H9.394v6.645Zm-7.515,0H0V15.19H1.879v6.645ZM16.909,9.494H15.03V2.848h1.879V9.493Zm-7.515,0H7.515V2.848H9.394V9.493Zm-7.515,0H0V2.848H1.879V9.493Z" transform="translate(1002 111.435)"/>
    <path id="Path-42"  d="M0,7.073A3.263,3.263,0,0,1,3.3,3.867H4.433A3.772,3.772,0,0,0,6.79,2.924L8.865.943A3.527,3.527,0,0,1,11.223,0h8.111a5.253,5.253,0,0,1,5.281,5.187,5.253,5.253,0,0,1-5.281,5.187H3.4A3.423,3.423,0,0,1,0,7.073Z" transform="translate(1005.34 158.534)" fill="#fff"/>
    <path id="Path-43"  d="M0,0H1.886V10.374H0Z" transform="translate(1043.064 175.416)"/>
    <path id="Path-44"  d="M4.153,8.488H15a2.829,2.829,0,0,0,0-5.659h-.849a4.631,4.631,0,0,1-3.4-1.415A4.791,4.791,0,0,0,7.359,0H4.153A4.15,4.15,0,0,0,0,4.15v.094A4.093,4.093,0,0,0,3.945,8.488Z" transform="translate(1034.667 166.928)" fill="#fff"/>
    <path id="Shape-42"  d="M8,88H6.222V0H8ZM1.778,88H0V0H1.778Z" transform="translate(1043 54.435)"/>
    <path id="Shape-43"  d="M30,60A30.008,30.008,0,0,1,18.323,2.358,30.008,30.008,0,0,1,41.677,57.642,29.811,29.811,0,0,1,30,60Zm0-45.937A15.937,15.937,0,1,0,41.27,18.731,15.833,15.833,0,0,0,30,14.063Z" transform="translate(1193 16.435)" fill="url(#pattern)"/>
  </g>
</svg>
