<svg xmlns="http://www.w3.org/2000/svg" width="398" height="302.426" viewBox="0 0 398 302.426">
  <path id="Shape" d="M.456,263.081a123.056,123.056,0,0,0,11.311,39.272l386.153.074L398,0,271.663.316s-49.586-4.823-100.42,29.259q-2.376,1.594-4.669,3.279a128.387,128.387,0,0,0-19.407,17.454c-15.509,17.246-25.306,37.687-28.381,59.213-2.452,16.87-8.666,38.312-23.791,56.078q-.792.91-1.584,1.813c-10.432,11.6-24.852,21.482-44.754,27.2-18.828,5.421-30.865,14.208-38.247,24.5C.69,232.606-1,248.678.456,263.081Z" fill="#f5f5f5" opacity="0.8"/>
</svg>
